<svg xmlns="http://www.w3.org/2000/svg" width="1200" height="675" viewBox="0 0 1200 675">
      <rect width="1200" height="675" rx="24" fill="#fff"/>
      <text x="60" y="100" font-size="40" font-weight="800" fill="#0b1220" font-family="system-ui, 'Noto Sans JP', sans-serif">商品/店舗プロモーション</text>
      
    <g transform="translate(80,140) scale(2)" fill="none" stroke="#0b1220" stroke-width="2.5">
      <rect x="2" y="10" width="52" height="36" rx="8" fill="#d4d8ff" stroke="none"/>
      <rect x="2" y="10" width="52" height="36" rx="8" />
      <circle cx="28" cy="28" r="10" />
      <path d="M10 10l6-8h24l6 8" />
      <rect x="54" y="18" width="12" height="20" rx="3" fill="#7c9cff" stroke="none"/>
    </g>
    
      
    <g transform="translate(320,140) scale(2)" fill="none" stroke="#0b1220" stroke-width="2.5">
      <rect x="6" y="2" width="28" height="52" rx="6" fill="#d4d8ff" stroke="none"/>
      <rect x="6" y="2" width="28" height="52" rx="6"/>
      <rect x="10" y="8" width="20" height="36" rx="4"/>
      <circle cx="20" cy="48" r="2"/>
      <rect x="40" y="18" width="18" height="20" rx="3" fill="#7c9cff" stroke="none"/>
    </g>
    
      
    <g transform="translate(520,140) scale(2)" fill="none" stroke="#0b1220" stroke-width="2.5">
      <rect x="2" y="18" width="52" height="28" rx="6" fill="#d4d8ff" stroke="none"/>
      <rect x="2" y="18" width="52" height="28" rx="6"/>
      <path d="M2 18l10-14h40l-10 14z" fill="#9ee7d7" stroke="none"/>
      <path d="M10 10l8 8M22 10l8 8M34 10l8 8" />
    </g>
    
      <text x="60" y="420" font-size="18" fill="#4a5775">この画像はAI生成ではなくSVGで自動作成されたイラストです。自由に差し替え可。</text>
    </svg>